HIERARCHY
ROOT Hips
{
	OFFSET 0.00000 0.00000 0.00000
	CHANNELS 6 Xposition Yposition Zposition Zrotation Yrotation Xrotation 
	JOINT LHipJoint
	{
		OFFSET 0 0 0
		CHANNELS 3 Zrotation Yrotation Xrotation
		JOINT LeftHip
		{
			OFFSET 1.61328 -1.70571 0.84375
			CHANNELS 3 Zrotation Yrotation Xrotation
			JOINT LeftKnee
			{
				OFFSET 2.32400 -6.38513 0.00000
				CHANNELS 3 Zrotation Yrotation Xrotation
				JOINT LeftAnkle
				{
					OFFSET 2.58843 -7.11166 0.00000
					CHANNELS 3 Zrotation Yrotation Xrotation
					JOINT LeftToe
					{
						OFFSET 0.17200 -0.47257 2.47970
						CHANNELS 3 Zrotation Yrotation Xrotation
						End Site
						{
							OFFSET 0.00000 -0.00000 1.26912
						}
					}
				}
			}
		}
	}
	JOINT RHipJoint
	{
		OFFSET 0 0 0
		CHANNELS 3 Zrotation Yrotation Xrotation
		JOINT RightHip
		{
			OFFSET -1.49930 -1.70570 0.84375
			CHANNELS 3 Zrotation Yrotation Xrotation
			JOINT RightKnee
			{
				OFFSET -2.30458 -6.33178 0.00000
				CHANNELS 3 Zrotation Yrotation Xrotation
				JOINT RightAnkle
				{
					OFFSET -2.62261 -7.20556 0.00000
					CHANNELS 3 Zrotation Yrotation Xrotation
					JOINT RightToe
					{
						OFFSET -0.18709 -0.51403 2.51340
						CHANNELS 3 Zrotation Yrotation Xrotation
						End Site
						{
							OFFSET -0.00000 -0.00000 1.28858
						}
					}
				}
			}
		}
	}
	JOINT lowerback
	{
		OFFSET 0 0 0
		CHANNELS 3 Zrotation Yrotation Xrotation
		JOINT Chest
		{
			OFFSET -0.03798 2.19274 -0.19881
			CHANNELS 3 Zrotation Yrotation Xrotation
			JOINT Chest2
			{
				OFFSET -0.00024 2.19460 0.05248
				CHANNELS 3 Zrotation Yrotation Xrotation
				JOINT lowerneck
				{
					OFFSET 0 0 0
					CHANNELS 3 Zrotation Yrotation Xrotation
					JOINT Neck
					{
						OFFSET -0.00746 1.82323 0.17286
						CHANNELS 3 Zrotation Yrotation Xrotation
						JOINT Head
						{
							OFFSET 0.11826 1.82121 -0.27841
							CHANNELS 3 Zrotation Yrotation Xrotation
							End Site
							{
								OFFSET 0.03496 1.85543 -0.11495
							}
						}
					}
				}
				JOINT LeftCollar
				{
					OFFSET 0 0 0
					CHANNELS 3 Zrotation Yrotation Xrotation
					JOINT LeftShoulder
					{
						OFFSET 3.71926 0.78840 0.25473
CHANNELS 3 Zrotation Xrotation Yrotation
						JOINT LeftElbow
						{
OFFSET 0 -5.375870 0.000000
CHANNELS 3 Zrotation Xrotation Yrotation
							JOINT LeftWrist
							{
OFFSET 0 -3.359770 0.000000
CHANNELS 3 Zrotation Xrotation Yrotation
								JOINT lhand
								{
									OFFSET 0 0 0
CHANNELS 3 Zrotation Xrotation Yrotation
									JOINT LFingers
									{
OFFSET 0 -0.561860 0.000000
CHANNELS 3 Zrotation Xrotation Yrotation
										End Site
										{
OFFSET 0 -0.452990 0.000000
										}
									}
								}
								JOINT LThumb
								{
OFFSET 0 0.000000 0.000000
CHANNELS 3 Zrotation Xrotation Yrotation
									End Site
									{
OFFSET 0 -0.459900 0.459900
									}
								}
							}
						}
					}
				}
				JOINT RightCollar
				{
					OFFSET 0 0 0
					CHANNELS 3 Zrotation Yrotation Xrotation
					JOINT RightShoulder
					{
						OFFSET -3.65136 0.56074 0.01624
CHANNELS 3 Zrotation Xrotation Yrotation
						JOINT RightElbow
						{
OFFSET 0 -5.228190 0.000000
CHANNELS 3 Zrotation Xrotation Yrotation
							JOINT RightWrist
							{
OFFSET 0 -3.407640 0.000000
CHANNELS 3 Zrotation Xrotation Yrotation
								JOINT rhand
								{
									OFFSET 0 0 0
CHANNELS 3 Zrotation Xrotation Yrotation
									JOINT RFingers
									{
OFFSET 0 -0.583250 0.000000
CHANNELS 3 Zrotation Xrotation Yrotation
										End Site
										{
OFFSET 0 -0.470240 0.000000
										}
									}
								}
								JOINT RThumb
								{
OFFSET 0 0.000000 0.000000
CHANNELS 3 Zrotation Xrotation Yrotation
									End Site
									{
OFFSET 0 -0.477420 0.477420
									}
								}
							}
						}
					}
				}
			}
		}
	}
}
MOTION
Frames: 8
Frame Time: 0.008333333333333333
48.457743 16.614339 -6.106757 -761.655778 -86.895838 3641.878097 0.000000 0.000000 0.000000 -20.118202 2.925433 -6.126724 1.769715 8.369021 23.840686 1.030762 0.634684 -19.428289 0.041109 -1.309040 -3.599509 0.000000 0.000000 0.000000 22.821964 5.859629 -11.364343 -3.707580 -11.760770 34.890776 -1.672024 2.477199 -23.786456 -0.899943 -6.045747 16.917230 -1.157229 -0.198512 -0.673000 1.608304 -0.570954 8.292162 2.285059 -0.544406 9.135033 -0.708892 -2.614031 -4.902718 11.859112 -5.114730 10.967142 3.482676 -2.045029 4.414896 0.000000 0.000000 0.000000 -0.964243 -5.069095 -19.295209 12.031879 -19.852419 2.113079 20.891099 -0.150670 -16.050216 0.000000 0.000000 0.000000 -7.125000 0.000000 0.000000 -6.531900 46.989422 0.321956 0.000000 0.000000 0.000000 -1.771003 -9.027627 21.904400 -14.375452 -23.268864 -2.974829 -22.207756 -6.952282 -5.605638 0.000000 0.000000 0.000000 7.125000 0.000000 0.000000 3.337749 23.929772 1.699756
48.395415 16.589518 -5.841108 -803.186364 -88.036420 3683.585543 0.000000 0.000000 0.000000 -21.257694 4.477702 -5.998260 1.675162 8.153833 23.182228 1.072349 0.533702 -19.774520 0.009867 -0.640389 -1.759742 0.000000 0.000000 0.000000 21.714133 7.135268 -12.567298 -4.198473 -12.419839 37.234066 -1.623893 2.807436 -23.357702 -0.739964 -5.495195 15.326602 -1.888417 -0.055375 -0.176501 0.984927 -0.321479 8.584196 2.054532 -0.461842 9.151662 -0.396952 -2.272501 -5.292892 10.418531 -4.348495 9.932944 3.022385 -1.733610 4.078592 0.000000 0.000000 0.000000 -0.691756 -6.310413 -18.871724 11.274554 -18.707857 1.863053 20.601322 0.789270 -15.986943 0.000000 0.000000 0.000000 -7.125000 0.000000 0.000000 -6.789170 46.883354 0.317010 0.000000 0.000000 0.000000 -0.806010 -8.840770 22.402855 -15.110774 -24.300190 -3.271385 -22.116026 -7.833380 -5.927711 0.000000 0.000000 0.000000 7.125000 0.000000 0.000000 3.406562 23.587218 1.761845
48.355448 16.574652 -5.600710 -849.174077 -87.329125 3729.923556 0.000000 0.000000 0.000000 -22.133772 5.617185 -6.319306 1.620836 8.026987 22.796109 1.103378 0.724798 -20.128430 0.000763 -0.177909 -0.488779 0.000000 0.000000 0.000000 20.513126 7.842065 -16.364170 -5.434413 -13.856510 42.666429 -1.318735 3.500859 -20.839027 -0.474598 -4.417860 12.255358 -2.540015 0.001916 0.278144 0.216521 -0.184643 8.738298 1.615004 -0.417810 9.046285 -0.205330 -1.910416 -5.542446 8.077803 -3.507670 9.230688 2.470282 -1.426218 4.057419 0.000000 0.000000 0.000000 -0.054854 -9.032397 -19.751321 10.873685 -18.094378 1.736456 20.671671 1.918273 -16.694739 0.000000 0.000000 0.000000 -7.125000 0.000000 0.000000 -6.893917 47.633213 0.449907 0.000000 0.000000 0.000000 0.032955 -8.359675 23.341207 -15.778665 -25.219647 -3.551108 -22.099519 -8.588676 -5.957789 0.000000 0.000000 0.000000 7.125000 0.000000 0.000000 3.418885 23.555637 1.770741
48.263356 16.565800 -5.402654 -870.470968 -85.469207 3750.809098 0.000000 0.000000 0.000000 -22.868158 6.868908 -5.060964 1.451816 7.616307 21.554671 1.121300 1.798553 -20.728597 0.000683 0.174280 0.478952 0.000000 0.000000 0.000000 19.417731 9.378035 -20.727561 -7.460595 -15.707551 50.595199 -0.859307 2.289025 -16.891914 -0.387596 -3.997772 11.070350 -3.105127 0.153770 0.891737 -0.633498 0.047771 9.048089 1.044646 -0.328513 9.018404 0.067707 -1.346938 -5.745129 5.104753 -2.420904 9.230708 1.568955 -0.996065 4.137690 0.000000 0.000000 0.000000 1.076114 -12.177441 -23.022145 11.256937 -18.680992 1.857392 20.655443 1.434094 -17.390127 0.000000 0.000000 0.000000 -7.125000 0.000000 0.000000 -7.086211 48.356774 0.589551 0.000000 0.000000 0.000000 0.479935 -7.913054 24.586533 -15.732834 -25.157061 -3.531650 -22.058300 -8.542574 -6.023735 0.000000 0.000000 0.000000 7.125000 0.000000 0.000000 3.449613 23.486606 1.792124
48.098645 16.582580 -5.261839 -872.184038 -83.883651 3752.161970 0.000000 0.000000 0.000000 -22.840711 7.495349 -3.393887 1.292611 7.203608 20.320004 1.095420 2.865714 -20.996113 0.000927 0.200724 0.551471 0.000000 0.000000 0.000000 19.766896 9.863271 -24.935573 -8.903281 -16.745081 55.755023 -1.005396 -1.845573 -19.691922 -0.476413 -4.426739 12.280456 -3.173980 0.170019 1.370865 -1.149956 0.061998 9.206288 0.535890 -0.315808 8.911185 0.235780 -0.715761 -6.053073 2.307504 -1.292351 9.630152 0.658366 -0.544603 4.266343 0.000000 0.000000 0.000000 2.127995 -14.939615 -27.667759 12.151732 -20.031752 2.154018 21.033610 0.787372 -18.088637 0.000000 0.000000 0.000000 -7.125000 0.000000 0.000000 -6.908893 49.143057 0.709029 0.000000 0.000000 0.000000 0.689481 -7.026963 25.040201 -15.459283 -24.781962 -3.416099 -22.025880 -8.203998 -5.915592 0.000000 0.000000 0.000000 7.125000 0.000000 0.000000 3.473360 23.604334 1.795086
47.873507 16.648366 -5.187876 -869.313796 -83.400378 3749.433038 0.000000 0.000000 0.000000 -22.542860 8.214078 -1.728361 1.057748 6.539045 18.356675 0.975203 3.320800 -20.132702 0.000000 -0.009786 -0.026829 0.000000 0.000000 0.000000 20.673018 9.761916 -27.906505 -7.936937 -16.072319 52.334635 -1.275294 -3.245584 -22.722906 -0.330216 -3.691627 10.210872 -3.513193 -0.023225 1.647218 -1.307348 -0.201743 9.318612 0.541094 -0.472642 8.886350 0.142674 -0.277684 -6.621188 0.332213 -0.479766 9.804273 0.056491 -0.236997 4.424116 0.000000 0.000000 0.000000 2.809586 -16.898317 -33.239747 13.449766 -21.942594 2.619002 21.370299 -1.639963 -16.888322 0.000000 0.000000 0.000000 -7.125000 0.000000 0.000000 -6.278588 47.936572 0.456651 0.000000 0.000000 0.000000 0.781618 -6.260672 24.715473 -14.949350 -24.075498 -3.205266 -22.025536 -7.720473 -6.060105 0.000000 0.000000 0.000000 7.125000 0.000000 0.000000 3.473991 23.449092 1.807878
47.590268 16.722832 -5.171957 -869.848494 -83.151653 3750.373589 0.000000 0.000000 0.000000 -22.566115 9.553128 0.555702 0.689118 5.306494 14.785055 0.788936 4.108329 -18.758599 0.000300 -0.117379 -0.322482 0.000000 0.000000 0.000000 21.315729 10.482702 -29.182593 -5.493917 -13.918270 42.913183 -1.229461 -3.935758 -22.700003 -0.351054 -3.806620 10.533299 -3.934078 0.002157 1.738518 -1.510116 -0.152785 9.353922 0.563359 -0.476094 8.875112 -0.174149 0.095437 -7.072780 -0.713452 0.165079 10.424373 -0.203529 0.009292 4.743603 0.000000 0.000000 0.000000 3.008082 -18.419263 -36.948576 14.078503 -22.846811 2.858519 21.631226 -2.791661 -17.020176 0.000000 0.000000 0.000000 -7.125000 0.000000 0.000000 -6.061784 48.113233 0.467152 0.000000 0.000000 0.000000 1.152832 -5.687991 24.433413 -14.456388 -23.383324 -3.006860 -21.852877 -7.146654 -5.780705 0.000000 0.000000 0.000000 7.125000 0.000000 0.000000 3.601390 23.757033 1.848865
47.226005 16.794679 -5.217357 -869.577993 -83.535922 3750.627780 0.000000 0.000000 0.000000 -22.386286 11.206394 4.031344 0.283060 3.420819 9.452675 0.539418 4.675204 -16.370239 0.004778 -0.446198 -1.226102 0.000000 0.000000 0.000000 21.749727 10.937899 -29.671134 -3.265494 -11.112290 32.660343 -1.059309 -4.145568 -21.353124 -0.344821 -3.773235 10.439597 -4.190690 0.119047 1.691513 -1.666803 0.024270 9.378245 0.549909 -0.403754 8.925799 -0.384036 0.356591 -6.952222 -1.106578 0.573436 11.760747 -0.246622 0.160901 4.669185 0.000000 0.000000 0.000000 1.857195 -19.949985 -37.451212 12.812174 -21.011339 2.385579 21.543940 -1.875201 -17.238106 0.000000 0.000000 0.000000 -7.125000 0.000000 0.000000 -6.198606 48.329406 0.510924 0.000000 0.000000 0.000000 1.652719 -5.261694 24.522196 -14.331845 -23.207157 -2.957634 -21.730974 -7.070603 -5.809515 0.000000 0.000000 0.000000 7.125000 0.000000 0.000000 3.691770 23.731440 1.897657
